<svg width="168" height="49" viewBox="0 0 168 49" fill="none" xmlns="http://www.w3.org/2000/svg">
<g clip-path="url(#clip0_3_34)">
<path d="M20 4.5C31.046 4.5 40 13.454 40 24.5V38.5C40 40.0913 39.3679 41.6174 38.2426 42.7426C37.1174 43.8679 35.5913 44.5 34 44.5H21V35.726C21 33.724 21.122 31.65 22.172 29.946C22.9237 28.7248 23.9293 27.6796 25.1205 26.8813C26.3118 26.0829 27.6607 25.5501 29.076 25.319L29.459 25.257C29.6169 25.203 29.754 25.101 29.851 24.9653C29.9481 24.8296 30.0002 24.6669 30.0002 24.5C30.0002 24.3331 29.9481 24.1704 29.851 24.0347C29.754 23.899 29.6169 23.797 29.459 23.743L29.076 23.681C27.0082 23.3432 25.0987 22.3644 23.6171 20.8829C22.1356 19.4013 21.1568 17.4918 20.819 15.424L20.757 15.041C20.703 14.8831 20.601 14.746 20.4653 14.649C20.3295 14.5519 20.1669 14.4997 20 14.4997C19.8331 14.4997 19.6704 14.5519 19.5347 14.649C19.399 14.746 19.297 14.8831 19.243 15.041L19.181 15.424C18.9499 16.8393 18.4171 18.1883 17.6188 19.3795C16.8204 20.5707 15.7752 21.5763 14.554 22.328C12.85 23.378 10.776 23.5 8.77399 23.5H0.0239868C0.546987 12.919 9.28999 4.5 20 4.5Z" fill="#FFE7C2"/>
<path d="M0 55.5H8.774C10.776 55.5 12.85 55.622 14.554 56.672C15.886 57.4928 17.0072 58.614 17.828 59.946C18.878 61.65 19 63.724 19 65.726V74.5H6C4.4087 74.5 2.88258 73.8679 1.75736 72.7426C0.632141 71.6174 0 70.0913 0 68.5L0 55.5ZM40 36.5C40 37.0304 39.7893 37.5391 39.4142 37.9142C39.0391 38.2893 38.5304 38.5 38 38.5C37.4696 38.5 36.9609 38.2893 36.5858 37.9142C36.2107 37.5391 36 37.0304 36 36.5C36 35.9696 36.2107 35.4609 36.5858 35.0858C36.9609 34.7107 37.4696 34.5 38 34.5C38.5304 34.5 39.0391 34.7107 39.4142 35.0858C39.7893 35.4609 40 35.9696 40 36.5Z" fill="#FFE7C2"/>
</g>
<path d="M86.128 12.94V35.5H79.856V23.052L75.6 35.5H70.352L66.064 22.956V35.5H59.792V12.94H67.376L73.04 27.596L78.576 12.94H86.128ZM92.8663 15.884C91.7569 15.884 90.8609 15.5853 90.1783 14.988C89.5169 14.3693 89.1863 13.6013 89.1863 12.684C89.1863 11.7453 89.5169 10.9667 90.1783 10.348C90.8609 9.72933 91.7569 9.42 92.8663 9.42C93.9543 9.42 94.8289 9.72933 95.4903 10.348C96.1729 10.9667 96.5143 11.7453 96.5143 12.684C96.5143 13.6013 96.1729 14.3693 95.4903 14.988C94.8289 15.5853 93.9543 15.884 92.8663 15.884ZM95.9703 17.548V35.5H89.6983V17.548H95.9703ZM105.814 11.82V35.5H99.542V11.82H105.814ZM115.338 30.284H122.986V35.5H108.426V30.54L115.562 22.764H108.49V17.548H122.73V22.508L115.338 30.284ZM137.413 17.388C139.461 17.388 141.082 18.0813 142.277 19.468C143.493 20.8333 144.101 22.6893 144.101 25.036V35.5H137.829V25.868C137.829 24.844 137.562 24.044 137.029 23.468C136.495 22.8707 135.781 22.572 134.885 22.572C133.946 22.572 133.21 22.8707 132.677 23.468C132.143 24.044 131.877 24.844 131.877 25.868V35.5H125.605V11.82H131.877V20.108C132.431 19.2973 133.178 18.6467 134.117 18.156C135.077 17.644 136.175 17.388 137.413 17.388ZM146.518 26.508C146.518 24.652 146.849 23.0307 147.51 21.644C148.193 20.2573 149.11 19.1907 150.262 18.444C151.435 17.6973 152.737 17.324 154.166 17.324C155.403 17.324 156.47 17.5693 157.366 18.06C158.262 18.5507 158.955 19.212 159.446 20.044V17.548H165.718V35.5H159.446V33.004C158.955 33.836 158.251 34.4973 157.334 34.988C156.438 35.4787 155.382 35.724 154.166 35.724C152.737 35.724 151.435 35.3507 150.262 34.604C149.11 33.8573 148.193 32.7907 147.51 31.404C146.849 29.996 146.518 28.364 146.518 26.508ZM159.446 26.508C159.446 25.356 159.126 24.4493 158.486 23.788C157.867 23.1267 157.099 22.796 156.182 22.796C155.243 22.796 154.465 23.1267 153.846 23.788C153.227 24.428 152.918 25.3347 152.918 26.508C152.918 27.66 153.227 28.5773 153.846 29.26C154.465 29.9213 155.243 30.252 156.182 30.252C157.099 30.252 157.867 29.9213 158.486 29.26C159.126 28.5987 159.446 27.6813 159.446 26.508Z" fill="white"/>
<defs>
<clipPath id="clip0_3_34">
<rect width="40" height="40" fill="white" transform="translate(0 4.5)"/>
</clipPath>
</defs>
</svg>
