<?xml version="1.0" encoding="UTF-8"?>
<svg version="1.1" xmlns="http://www.w3.org/2000/svg" width="1024" height="1024">
<path d="M0 0 C337.92 0 675.84 0 1024 0 C1024 337.92 1024 675.84 1024 1024 C686.08 1024 348.16 1024 0 1024 C0 686.08 0 348.16 0 0 Z " fill="#FBFBFC" transform="translate(0,0)"/>
<path d="M0 0 C2.91781637 2.27954404 2.97820387 3.82563093 3.4375 7.5 C2.60116069 25.69874334 -10.92449033 43.68679211 -21 58 C-21.4630957 58.65887207 -21.92619141 59.31774414 -22.40332031 59.99658203 C-28.96631642 69.26852931 -36.00395466 78.13499204 -43.25830078 86.87353516 C-44.53004077 88.42622023 -45.78084514 89.99612047 -47.01904297 91.57568359 C-51.64918927 97.41860962 -56.55576898 102.49857705 -62.05712891 107.52026367 C-74.61352227 119.12693157 -81.31056207 130.73420221 -87 147 C-87.37761475 147.98484375 -87.75522949 148.9696875 -88.14428711 149.984375 C-88.51046143 150.94214844 -88.87663574 151.89992188 -89.25390625 152.88671875 C-89.58205322 153.73580811 -89.9102002 154.58489746 -90.24829102 155.4597168 C-91.4678388 159.58098822 -91.53380456 163.74706528 -91 168 C-89.94014233 169.2502125 -89.94014233 169.2502125 -87.5625 169.4375 C-73.96321709 167.76741263 -62.24723672 152.82145589 -54 143 C-50.15675687 137.97124034 -46.78896441 132.67630658 -43.4375 127.3125 C-38.06561294 118.86247411 -32.5739726 113.29646014 -24 108 C-23.30132813 107.56171875 -22.60265625 107.1234375 -21.8828125 106.671875 C-15.12998502 103.05337877 -7.4650741 103.08842329 0 104 C3.97859441 105.59983339 5.60336333 106.405045 8 110 C9.22989365 117.2256252 5.847573 123.03554669 2 129 C-1.25246375 133.11025638 -4.89176071 136.85600045 -8.58398438 140.56933594 C-9.81147955 141.80952934 -11.01010935 143.07816636 -12.203125 144.3515625 C-16.95636657 149.35599164 -22.23725388 153.22115009 -28 157 C-26.845 157.185625 -25.69 157.37125 -24.5 157.5625 C-19.27204431 158.85784018 -15.45100001 161.92076308 -12 166 C-11.27734375 168.2265625 -11.27734375 168.2265625 -11 170 C-6.36222746 167.03776419 -2.17170101 163.77170163 2 160.1875 C2.59039063 159.69185547 3.18078125 159.19621094 3.7890625 158.68554688 C4.37429688 158.18474609 4.95953125 157.68394531 5.5625 157.16796875 C6.33787109 156.50704224 6.33787109 156.50704224 7.12890625 155.83276367 C12.25117049 150.81543099 16.02004479 145.69856827 19.13671875 139.25 C19.49799866 138.52300903 19.85927856 137.79601807 20.23150635 137.04699707 C21.39330872 134.70269372 22.54049999 132.35157573 23.6875 130 C24.49277313 128.36874653 25.29885022 126.7378897 26.10571289 125.10742188 C30.46540744 116.27684217 34.73134988 107.40465109 38.9375 98.5 C46.93755156 81.60179352 56.27018778 65.63040673 66.23046875 49.82275391 C68.11774217 46.81217784 69.98235201 43.78835561 71.84375 40.76171875 C94.28835619 4.34597568 94.28835619 4.34597568 107.0859375 0.39453125 C111.0790741 -0.42854385 114.53667364 -0.53912024 118.375 0.875 C120 2 120 2 121 4 C123.23260278 21.22293573 112.38275239 36.81290826 102.6875 50.0625 C97.86172996 56.32341208 92.69924857 62.2847893 87.51416016 68.24755859 C85.0856744 71.05821174 82.70181189 73.90606216 80.3125 76.75 C74.99056292 83.06294455 69.49781852 89.20961302 63.8984375 95.27734375 C47.43486135 113.26754242 35.1029418 132.34240983 24 154 C27.82187313 150.28274018 31.31189076 146.38445998 34.75 142.3125 C65.68580266 106.00191563 65.68580266 106.00191563 78.96484375 103.65234375 C82.7851021 103.37489482 84.81627869 103.87751913 88 106 C90.55555086 109.83332629 90.81202176 112.59478196 90 117 C87.66555434 124.94713363 84.02444709 132.02155229 79.9375 139.1875 C73.02790646 150.6142927 73.02790646 150.6142927 70.8125 163.5 C70.83957031 164.3559375 70.86664062 165.211875 70.89453125 166.09375 C70.92933594 166.7228125 70.96414063 167.351875 71 168 C81.51299237 167.47435038 89.35605713 157.27623611 96 150 C99.60566583 145.51693414 102.82141112 140.81502687 105.953125 135.9921875 C114.30654924 123.13317617 126.2085393 107.73747738 142 104 C154.07296701 102.71707845 154.07296701 102.71707845 158.83984375 105.890625 C160.87173249 107.87474782 161.97032203 109.37900153 163 112 C164.093125 111.9175 165.18625 111.835 166.3125 111.75 C170 112 170 112 172 113.5625 C173.39128549 116.95375838 172.97522344 119.56411087 172 123 C170.3026904 126.755567 168.30755965 130.33329074 166.3125 133.9375 C156.94806183 150.55861123 156.94806183 150.55861123 154 169 C157.00754279 170.36557933 157.00754279 170.36557933 159.89453125 168.80859375 C173.08181109 161.12845467 183.28145432 147.43944408 192.02880859 135.16772461 C192.50398926 134.5103833 192.97916992 133.85304199 193.46875 133.17578125 C194.09426758 132.29273315 194.09426758 132.29273315 194.73242188 131.3918457 C196 130 196 130 199 129 C198.48665016 133.8218217 196.18247915 137.22534096 193.5 141.125 C192.82614258 142.11632935 192.82614258 142.11632935 192.13867188 143.12768555 C172.41854006 171.76833409 172.41854006 171.76833409 157.61328125 175.62109375 C153.84236323 176.22568722 151.61828671 176.26310073 148.0625 174.75 C145.33433744 172.4351954 144.08732605 170.80861658 143.69921875 167.21484375 C143.67322474 159.94518466 144.41694857 153.81126062 147 147 C146.46826172 147.74830078 146.46826172 147.74830078 145.92578125 148.51171875 C138.42455575 158.62838365 127.25116642 173.24466328 114.1484375 175.48828125 C109.53441648 175.70592375 106.61707816 175.30312611 102.4375 173.25 C98.81912566 169.90996215 97.80307013 167.10146145 97.375 162.25 C97.30023437 161.45078125 97.22546875 160.6515625 97.1484375 159.828125 C97.09945312 159.22484375 97.05046875 158.6215625 97 158 C96.07380859 158.97839844 96.07380859 158.97839844 95.12890625 159.9765625 C87.78035309 167.56000092 80.04428211 175.32911599 69.0625 176.375 C64.80463488 176.27823034 62.28485872 174.72402918 59 172 C56.25711952 166.51423904 57.45141215 159.135991 58.91796875 153.42578125 C62.39974838 143.6543352 67.11574434 134.45961852 71.86035156 125.2487793 C72.3653418 124.2669165 72.87033203 123.28505371 73.390625 122.2734375 C73.84469727 121.40122559 74.29876953 120.52901367 74.76660156 119.63037109 C76.08916728 116.80984001 77.06905469 113.97044336 78 111 C70.54811178 114.58194627 64.91328603 119.27175557 59 125 C58.41879395 125.56074219 57.83758789 126.12148438 57.23876953 126.69921875 C49.27684596 134.41239645 41.84458947 142.26565856 35 151 C32.75911002 153.77825343 30.50390177 156.54479946 28.25 159.3125 C27.70649902 159.98273193 27.16299805 160.65296387 26.60302734 161.34350586 C25.56315499 162.62567391 24.52170806 163.90656692 23.47851562 165.18603516 C22.50480991 166.38065759 21.53465751 167.57818646 20.56835938 168.77880859 C17.22435334 172.88782333 17.22435334 172.88782333 15 174 C11.9375 174.125 11.9375 174.125 9 174 C8 173 8 173 7.8125 169.3125 C7.84631879 165.5586147 8.59777039 162.50557404 10 159 C9.53851562 159.4846875 9.07703125 159.969375 8.6015625 160.46875 C4.78799748 164.38782868 1.12139144 167.59448512 -3.4375 170.625 C-6.60706423 173.08539232 -7.83004897 174.24032819 -8.71484375 178.1953125 C-8.82323804 180.60113688 -8.88036624 183.00972561 -8.890625 185.41796875 C-9.63570446 209.81932119 -32.72203641 229.65416814 -49 245 C-59.22937179 254.28058361 -73.64780509 262.92908329 -87.625 264.375 C-91.77592139 263.91378651 -93.33721998 263.22761215 -96 260 C-97.22356619 252.90331612 -94.65582561 247.98843023 -91 242 C-85.61940846 234.51624039 -79.27282406 227.9588335 -72.74682617 221.48608398 C-71.19278924 219.9427528 -69.64972701 218.38902976 -68.10742188 216.83398438 C-61.73068792 210.44760985 -55.11275915 204.57189581 -48 199 C-47.207146 198.37440186 -46.41429199 197.74880371 -45.59741211 197.10424805 C-43.36407324 195.35129939 -41.12163946 193.6108582 -38.875 191.875 C-38.14152344 191.30652344 -37.40804688 190.73804688 -36.65234375 190.15234375 C-35.18627784 189.01607825 -33.71981507 187.88032458 -32.25292969 186.74511719 C-28.49732611 183.83603024 -24.74875296 180.91790645 -21 178 C-21.49574156 175.14830569 -21.86390524 173.21301788 -23.4375 170.75 C-27.46339433 168.00060875 -31.17711937 167.58491601 -36 168 C-39.18226639 169.05142721 -42.12488659 170.31447216 -45.140625 171.7734375 C-48.14389465 173.0617253 -50.75337727 173.67900623 -54 174 C-54.66 173.67 -55.32 173.34 -56 173 C-56 169.35714903 -55.85871315 167.09162439 -53.57421875 164.1875 C-49.83247409 160.71689625 -45.98669722 158.40459482 -41.375 156.25 C-26.12662238 149.0209967 -9.62095831 134.74457551 -3 119 C-2.9222654 116.66796188 -2.91032272 114.33160941 -3 112 C-12.42836791 110.86209353 -20.1899996 114.7693019 -27.67236328 120.21777344 C-34.3829937 125.52045143 -39.34605309 131.56728617 -43.8828125 138.82421875 C-53.75767464 153.63651196 -68.22569175 170.55683042 -85.8046875 175.62890625 C-91.12890903 176.52890811 -95.41741919 175.98911301 -100 173.125 C-103.79884509 169.08872709 -103.26003419 164.61700051 -103.234375 159.36328125 C-102.86454348 154.05619898 -101.51418488 149.08333495 -100 144 C-100.41507813 144.57105469 -100.83015625 145.14210938 -101.2578125 145.73046875 C-110.33567964 157.67603032 -121.49694362 168.24847181 -135 175 C-136.78859511 175.12207871 -138.58228381 175.17548448 -140.375 175.1875 C-141.33148437 175.20167969 -142.28796875 175.21585938 -143.2734375 175.23046875 C-146.07540017 174.99362663 -147.64903691 174.50461637 -150 173 C-153.20109619 168.99862976 -153.48748075 166.03730109 -153 161 C-152.12929199 157.29198486 -151.10701127 153.64391208 -150 150 C-150.54527344 150.68964844 -151.09054687 151.37929688 -151.65234375 152.08984375 C-169.58630766 174.43832185 -169.58630766 174.43832185 -180.71484375 176.50390625 C-184.84480995 176.69190765 -187.17768538 176.60169363 -190.5625 174.125 C-194.082208 168.9219534 -193.50195131 163.55778674 -192.64453125 157.48046875 C-190.19602873 146.25679611 -185.30006508 135.60925433 -181 125 C-186.49852998 127.53276408 -190.73185747 130.10813442 -195.0625 134.3125 C-195.83654175 135.04533203 -195.83654175 135.04533203 -196.6262207 135.79296875 C-198.09245831 137.18662034 -199.54663304 138.59293143 -201 140 C-201.66257812 140.62261719 -202.32515625 141.24523437 -203.0078125 141.88671875 C-208.80104154 147.45091315 -213.86423494 153.79438568 -218.66015625 160.2265625 C-221.27986314 163.62170263 -222.44835026 164.83170008 -226.6875 166.125 C-230 166 -230 166 -231.9375 165 C-234.06336268 160.99837613 -233.21479624 156.77012312 -232.0390625 152.5546875 C-227.89249972 141.76446059 -223.04413208 131.38243587 -217.9362793 121.0144043 C-216.89493174 118.87328477 -216.89493174 118.87328477 -216 116 C-223.49225509 119.1095024 -228.33152255 123.78514921 -233.9375 129.5625 C-234.8248584 130.46492432 -235.7122168 131.36734863 -236.62646484 132.29711914 C-242.45888564 138.27877146 -247.98381991 144.31175988 -253 151 C-254.68282793 153.23273111 -256.37032751 155.46184252 -258.0625 157.6875 C-258.48047852 158.23768799 -258.89845703 158.78787598 -259.32910156 159.35473633 C-263.8244852 165.19609071 -268.80795082 170.9046645 -275 175 C-278.1875 175.25 -278.1875 175.25 -281 175 C-281.33 174.67 -281.66 174.34 -282 174 C-281.85595486 166.36560745 -278.60215892 160.6094659 -275 154 C-275.33 154 -275.66 154 -276 154 C-276.804375 154.99 -277.60875 155.98 -278.4375 157 C-279.283125 157.99 -280.12875 158.98 -281 160 C-281.66 160 -282.32 160 -283 160 C-283 160.66 -283 161.32 -283 162 C-283.66 162 -284.32 162 -285 162 C-285 162.66 -285 163.32 -285 164 C-293.22411866 171.50499859 -302.16261361 177.82574198 -313.625 178.5 C-320.38223405 178.16092732 -327.37058878 174.893949 -332 170 C-333.54147682 167.07423643 -334.81918473 164.08727122 -336 161 C-336.37769531 161.42410156 -336.75539063 161.84820313 -337.14453125 162.28515625 C-343.21174706 168.75022227 -350.33397522 174.88539601 -359.375 176.125 C-363.39141277 176.25250517 -365.97058338 175.84007808 -369 173 C-372.17079014 167.86633978 -371.59159085 161.65019022 -370.32421875 155.97265625 C-369.59772773 153.2973789 -368.8304757 150.64466965 -368 148 C-368.81082031 148.97839844 -369.62164062 149.95679688 -370.45703125 150.96484375 C-389.43637532 173.55669247 -389.43637532 173.55669247 -400.78125 175.46875 C-409.02820423 175.56354258 -409.02820423 175.56354258 -412.5625 172.75 C-416.87264831 167.88726857 -417.4569353 164.37878259 -417.3046875 157.984375 C-415.84048606 143.64270957 -405.96767121 129.85079734 -396 120 C-394.86111328 118.82824219 -394.86111328 118.82824219 -393.69921875 117.6328125 C-385.72549643 109.88094497 -376.3798129 103.73010613 -365 103.25 C-361.12279209 103.47695851 -358.36740583 103.87483366 -355.25 106.25 C-352.22624434 109.94570136 -352.22624434 109.94570136 -352 113 C-350.906875 112.773125 -349.81375 112.54625 -348.6875 112.3125 C-345 112 -345 112 -343.0625 113 C-341.44592658 116.04296173 -341.41023334 118.68149006 -342 122 C-343.58957457 125.82490207 -345.60321096 129.38900456 -347.625 133 C-357.15134148 150.07743765 -357.15134148 150.07743765 -361 169 C-354.62104389 169.48424192 -351.8529155 167.31912388 -346.9375 163.5390625 C-339.39304102 157.0179211 -333.1454632 149.31719279 -327.015625 141.48046875 C-324.83789229 138.80050698 -322.53695732 136.28046896 -320.1875 133.75 C-312.31515634 125.16088431 -304.9662795 116.65557457 -300.10546875 106.00390625 C-298.27603772 102.68765848 -296.45728313 101.51256137 -293 100 C-288.71428571 100.28571429 -288.71428571 100.28571429 -287 102 C-286.70974839 107.28345891 -286.75652471 112.58407607 -286.75 117.875 C-286.74699387 119.03582092 -286.74699387 119.03582092 -286.743927 120.22009277 C-286.73636166 132.08563992 -287.52774029 143.36885069 -290 155 C-290.33947296 156.99896704 -290.67379785 158.99882453 -291 161 C-269.48685489 140.15976601 -269.48685489 140.15976601 -252.98925781 115.3269043 C-251.05945723 111.66612264 -249.23389815 108.63005825 -246 106 C-243.8125 106.125 -243.8125 106.125 -242 107 C-240.39259114 110.21481773 -240.61280167 113.50737702 -241 117 C-242.01576278 119.70113455 -243.018914 121.99213474 -244.375 124.5 C-244.8999707 125.51126953 -244.8999707 125.51126953 -245.43554688 126.54296875 C-249.53357754 134.28130937 -254.23631102 141.65923337 -259 149 C-258.67 149 -258.34 149 -258 149 C-253.70147307 144.55891989 -249.79121062 139.76377895 -245.9375 134.9375 C-241.94103659 130.02518039 -237.74145532 125.33232049 -233.4375 120.6875 C-232.51795532 119.6828772 -232.51795532 119.6828772 -231.57983398 118.65795898 C-225.93036044 112.62337953 -220.13311325 106.46664666 -211.5625 105.6875 C-208 106 -208 106 -205.5625 107.5625 C-203.32526244 111.05259059 -203.47575795 112.87159387 -204 117 C-206.76899373 127.47083058 -212.28531192 137.29746169 -217 147 C-210.49776704 141.82726141 -204.45140324 136.49413047 -198.6875 130.5 C-192.35711882 124.09015797 -184.83177803 117.41655557 -175.5 116.75 C-172 117 -172 117 -170.30859375 118.26171875 C-167.8509382 121.52636568 -168.4700195 125.10738461 -169 129 C-169.98267944 132.50427197 -171.45811676 135.70810052 -173 139 C-173.31630371 139.67788574 -173.63260742 140.35577148 -173.95849609 141.05419922 C-175.38501328 144.10762056 -176.81505608 147.15899808 -178.26953125 150.19921875 C-178.60726562 150.905625 -178.945 151.61203125 -179.29296875 152.33984375 C-179.5974292 152.97269287 -179.90188965 153.60554199 -180.21557617 154.25756836 C-181.69771366 157.54982335 -182.11417799 160.1217187 -182.0625 163.6875 C-182.05347656 164.49574219 -182.04445313 165.30398438 -182.03515625 166.13671875 C-182.01775391 167.05904297 -182.01775391 167.05904297 -182 168 C-178.81651182 168.34309678 -177.38554884 168.26646294 -174.7109375 166.41796875 C-173.94007813 165.68191406 -173.16921875 164.94585938 -172.375 164.1875 C-171.50488281 163.35992188 -170.63476562 162.53234375 -169.73828125 161.6796875 C-168.83464844 160.79539062 -167.93101562 159.91109375 -167 159 C-166.10667969 158.15695312 -165.21335937 157.31390625 -164.29296875 156.4453125 C-150.51933659 143.16429952 -139.52408351 127.33070095 -129.91748047 110.84790039 C-128.42876739 108.30363471 -127.09446174 106.09446174 -125 104 C-121.9375 104.25 -121.9375 104.25 -119 105 C-117.23096349 108.53807303 -117.4510188 112.18244694 -118 116 C-119.45216686 119.6769009 -121.41482327 122.98535443 -123.4375 126.375 C-124.54299024 128.31547596 -125.64449159 130.25822929 -126.7421875 132.203125 C-127.29229492 133.17185547 -127.84240234 134.14058594 -128.40917969 135.13867188 C-134.38046255 145.87891669 -139.8825598 156.80646505 -142 169 C-140.62134409 168.59559427 -139.2472278 168.17570763 -137.875 167.75 C-136.72644531 167.40195312 -136.72644531 167.40195312 -135.5546875 167.046875 C-129.86594407 164.71570797 -125.47816695 160.80276636 -121.0625 156.625 C-120.07535562 155.699307 -119.08706356 154.77483642 -118.09765625 153.8515625 C-117.62389053 153.40810486 -117.15012482 152.96464722 -116.66200256 152.50775146 C-115.04927588 151.04470256 -113.38501869 149.67514342 -111.69897461 148.29785156 C-99.95602954 138.23208441 -92.47456844 124.1976749 -85.787323 110.50863647 C-83.57399991 105.98056665 -81.29960737 101.48312216 -79.03515625 96.98046875 C-78.59627579 96.10375015 -78.15739532 95.22703156 -77.70521545 94.32374573 C-72.521618 83.99289147 -66.87798159 73.9512682 -61 64 C-60.48646973 63.12666016 -59.97293945 62.25332031 -59.44384766 61.35351562 C-26.01373431 4.63489267 -26.01373431 4.63489267 -9.9921875 -0.6640625 C-6.54868946 -1.2447308 -3.36372191 -0.89984917 0 0 Z " fill="#040404" transform="translate(714,363)"/>
<path d="M0 0 C5.21904913 5.46610471 6.79992445 12.47126895 6.65136719 19.79150391 C6.41541713 23.42894049 5.7629971 26.89174335 4.9375 30.4375 C4.75751465 31.21182373 4.5775293 31.98614746 4.39208984 32.78393555 C-4.18481989 68.100831 -24.17799792 100.49102177 -41.5 132.125 C-40.33984375 130.74828125 -40.33984375 130.74828125 -39.15625 129.34375 C-34.09627815 123.37081687 -29.06076378 117.48218463 -23.41796875 112.04492188 C-21.62260275 110.2477276 -19.97536917 108.39667624 -18.33203125 106.4609375 C-13.56229958 100.96805909 -8.35607465 95.93315393 -3.171875 90.8359375 C-2.41390625 90.08570313 -1.6559375 89.33546875 -0.875 88.5625 C-0.20210938 87.90121094 0.47078125 87.23992187 1.1640625 86.55859375 C3.11492813 84.5261702 4.96237317 82.45785578 6.80371094 80.32788086 C10.38748623 76.2044316 14.15689849 72.30672688 18.015625 68.44140625 C18.71210144 67.74160141 19.40857788 67.04179657 20.12615967 66.32078552 C21.59044914 64.8514693 23.05606335 63.38347218 24.52294922 61.91674805 C26.73565195 59.70186221 28.94022426 57.47909695 31.14453125 55.25585938 C37.93242079 48.4415989 44.68573861 41.81240461 52.27368164 35.88378906 C54.50966114 34.11736771 56.59979371 32.25067071 58.6875 30.3125 C67.62016359 22.31927874 77.37097187 15.1989443 87.625 9 C88.22779785 8.63398682 88.8305957 8.26797363 89.45166016 7.89086914 C94.88771717 4.69941198 99.79916552 2.83909626 106.125 2.75 C107.50558594 2.70746094 107.50558594 2.70746094 108.9140625 2.6640625 C112.33791967 3.27435728 113.46008985 4.33649898 115.5 7.125 C122.37105497 36.84008187 86.92242929 84.47246322 73.29760742 110.04711914 C48.72891396 151.73006217 48.72891396 151.73006217 44.5625 197.625 C46.86891479 202.89368212 51.36496379 204.21647395 56.4375 206.375 C57.118125 206.6225 57.79875 206.87 58.5 207.125 C57.625 211 57.625 211 56.5 212.125 C50.06332344 212.64553994 43.90336636 213.07868271 38.5 209.125 C32.41727467 202.76578716 31.13045806 197.90353431 31.20458984 189.2565918 C31.37870996 182.02026316 32.69785978 175.12454555 34.5 168.125 C34.78206299 167.01777588 34.78206299 167.01777588 35.06982422 165.88818359 C38.79312404 151.66144611 44.31509669 138.43862555 50.5 125.125 C51.0813739 123.86205117 51.66258482 122.59902731 52.24365234 121.3359375 C60.94682218 102.48114231 70.66481978 84.68938291 81.66845703 67.08837891 C85.89302797 60.25315603 89.75888788 53.23398103 93.5 46.125 C94.0043457 45.17077148 94.50869141 44.21654297 95.02832031 43.23339844 C96.68288687 40.08132567 98.31374383 36.91804312 99.9375 33.75 C100.44643799 32.77514648 100.95537598 31.80029297 101.47973633 30.79589844 C104.87293504 24.06990052 106.96767837 17.49670946 108.5 10.125 C88.09789528 13.29084384 71.40818227 28.85016495 56.5 42.125 C55.72567627 42.81102295 54.95135254 43.4970459 54.15356445 44.20385742 C44.74591442 52.67777853 35.82978349 61.64366161 26.8894043 70.60522461 C24.17935604 73.32066014 21.46396751 76.03067364 18.74804688 78.74023438 C17.00228324 80.48665842 15.25682963 82.23339244 13.51171875 83.98046875 C12.30995247 85.17919868 12.30995247 85.17919868 11.08390808 86.40214539 C6.35437711 91.15125205 1.85531388 96.03175107 -2.5 101.125 C-3.58074624 102.36310203 -4.66261143 103.60022914 -5.74609375 104.8359375 C-11.8292254 111.80992395 -17.80185817 118.83057021 -23.5 126.125 C-24.54652825 127.44038012 -25.59343832 128.7554565 -26.640625 130.0703125 C-34.48837501 139.97769784 -41.82114728 150.1341729 -48.83935547 160.64355469 C-50.54993031 163.19960919 -52.27579726 165.74483579 -54.00390625 168.2890625 C-60.49098456 177.88349405 -66.7308188 187.54718499 -72.41821289 197.64233398 C-75.23696695 202.51797574 -77.83661705 205.90975376 -82.5 209.125 C-85.76042342 209.63643897 -87.49938434 209.69201554 -90.375 208.0625 C-92.12278704 205.05242232 -91.71033563 202.56398747 -91.5 199.125 C-90.73237132 196.57393327 -89.92391888 194.302153 -88.875 191.875 C-88.4250769 190.80946899 -88.4250769 190.80946899 -87.96606445 189.72241211 C-80.44724534 172.45169364 -71.10449023 155.85011841 -61.82763672 139.47119141 C-60.32821996 136.82143138 -58.83785178 134.1666751 -57.34765625 131.51171875 C-48.28230971 115.38859029 -48.28230971 115.38859029 -43.79345703 107.89111328 C-33.56046455 90.78196037 -24.18073218 73.1560813 -15.8125 55.0625 C-15.33184082 54.02359619 -14.85118164 52.98469238 -14.35595703 51.91430664 C-8.75184141 39.57264751 -3.03870106 26.96436056 -4.5 13.125 C-5.43013112 10.86529147 -5.43013112 10.86529147 -6.5 9.125 C-26.62299013 7.12160496 -43.90168568 24.2876556 -58.5 36.125 C-61.95428881 39.01293522 -65.2532623 42.00649049 -68.5 45.125 C-69.27174561 45.85009766 -69.27174561 45.85009766 -70.05908203 46.58984375 C-91.7756744 66.84178243 -91.7756744 66.84178243 -102.0625 93.625 C-101.48823916 97.19817856 -100.56594919 99.19823865 -98.5 102.125 C-98.5 102.785 -98.5 103.445 -98.5 104.125 C-102.73234104 103.96221765 -104.8524139 103.75598132 -107.9375 100.75 C-110.36704911 95.11344605 -110.54716338 89.67829595 -108.8046875 83.765625 C-107.83126445 81.45885777 -106.7206465 79.31072013 -105.5 77.125 C-105.0875 76.33480469 -104.675 75.54460937 -104.25 74.73046875 C-100.30446473 67.6128128 -95.0535381 62.01836813 -89.5 56.125 C-88.40974262 54.86010185 -87.32573819 53.58976889 -86.25 52.3125 C-78.34499589 43.25157548 -69.70367696 34.77142053 -60.26171875 27.328125 C-58.28012777 25.74733672 -56.36125116 24.1527429 -54.45703125 22.484375 C-17.83187147 -9.55278829 -17.83187147 -9.55278829 0 0 Z " fill="#030303" transform="translate(223.5,362.875)"/>
<path d="M0 0 C5.06793834 -0.04992286 10.13572942 -0.08596378 15.20385742 -0.10986328 C16.92328387 -0.1198403 18.64269372 -0.13342675 20.36206055 -0.15087891 C47.65658794 -0.42072884 47.65658794 -0.42072884 56 7 C58.83668721 10.29473586 60.23018111 13.71709613 60.4375 18.0625 C59.81693098 23.64762115 58.35331973 26.61367247 54.4375 30.625 C50.45153882 33.74313166 45.72770814 35.32754989 41 37 C41.61746094 37.55945313 42.23492188 38.11890625 42.87109375 38.6953125 C48.63505988 44.15221803 52.98775774 49.55704776 57.04272461 56.35205078 C59.22498277 59.98185486 60.83236851 62.32857304 65.04296875 63.6328125 C67.02864583 64.08854167 69.01432292 64.54427083 71 65 C71 65.66 71 66.32 71 67 C64.09711747 67.99075322 56.79432081 68.94899491 50 67 C45.4439603 63.51491617 43.26946301 58.08639179 40.95703125 52.97900391 C39.66070678 50.29839009 37.99019861 48.0620691 36.125 45.75 C35.61195313 45.10546875 35.09890625 44.4609375 34.5703125 43.796875 C32.95289197 41.89349084 32.95289197 41.89349084 30.8046875 39.890625 C29 38 29 38 29 36 C26.03 36 23.06 36 20 36 C20.08731537 39.20959252 20.19424593 42.41652156 20.3125 45.625 C20.33505859 46.52863281 20.35761719 47.43226563 20.38085938 48.36328125 C20.58922809 53.55355659 20.95070052 57.5954563 24 62 C27.5693717 63.44967902 27.5693717 63.44967902 31 64 C31 64.99 31 65.98 31 67 C20.77 67 10.54 67 0 67 C0.33 66.01 0.66 65.02 1 64 C3.32206525 63.29508733 5.65593068 62.62787571 8 62 C9.22921104 59.54157792 9.14002974 57.90394243 9.16113281 55.15478516 C9.17074036 54.14678864 9.1803479 53.13879211 9.19024658 52.10025024 C9.1966214 50.46121231 9.1966214 50.46121231 9.203125 48.7890625 C9.20882507 47.6693808 9.21452515 46.5496991 9.22039795 45.39608765 C9.22985665 43.0238337 9.23638537 40.65156656 9.24023438 38.27929688 C9.24994147 34.6469027 9.28095798 31.01507382 9.3125 27.3828125 C9.3190297 25.08073254 9.3242803 22.77864851 9.328125 20.4765625 C9.3466452 18.84359726 9.3466452 18.84359726 9.36553955 17.17764282 C9.36253845 16.16334198 9.35953735 15.14904114 9.35644531 14.10400391 C9.36009094 13.21290924 9.36373657 12.32181458 9.36749268 11.40371704 C8.92416408 8.50396808 7.95901196 7.14939947 6 5 C4.21586579 3.91167683 4.21586579 3.91167683 2.3125 3.25 C1.219375 2.8375 0.12625 2.425 -1 2 C-0.67 1.34 -0.34 0.68 0 0 Z " fill="#030303" transform="translate(519,595)"/>
<path d="M0 0 C1.6498007 3.29960141 1.38258361 6.99127884 1.5625 10.625 C1.60568359 11.42679688 1.64886719 12.22859375 1.69335938 13.0546875 C1.79951457 15.0362511 1.90026855 17.01810271 2 19 C1.01 19 0.02 19 -1 19 C-1.36351562 18.19175781 -1.72703125 17.38351562 -2.1015625 16.55078125 C-5.92153342 8.43089436 -8.49689441 4.29105372 -16.5625 0.1875 C-24.08505123 -2.30083913 -32.27103369 -2.20671909 -39.5 1.0625 C-45.81141078 4.73477953 -48.5722578 9.08318096 -50.8125 15.9375 C-53.71048065 28.0457295 -53.11577165 40.21600623 -46.78515625 51.0859375 C-42.84610407 56.49785267 -37.45824324 58.76244324 -31 60 C-24.17859769 60.24362151 -17.77338474 59.84892316 -12 56 C-9.8337132 53.8337132 -10.76838258 49.06115783 -10.75 46.0625 C-10.729375 45.22525391 -10.70875 44.38800781 -10.6875 43.52539062 C-10.68234375 42.72423828 -10.6771875 41.92308594 -10.671875 41.09765625 C-10.6625293 40.36039307 -10.65318359 39.62312988 -10.64355469 38.86352539 C-10.76118164 38.24856201 -10.87880859 37.63359863 -11 37 C-14.44450737 34.70366176 -16.93812283 34.45983515 -21 34 C-21 33.01 -21 32.02 -21 31 C-11.1 31 -1.2 31 9 31 C9 31.99 9 32.98 9 34 C7.02 34.66 5.04 35.32 3 36 C2.99589111 36.55461914 2.99178223 37.10923828 2.98754883 37.68066406 C2.95455819 40.204844 2.88391622 42.72662696 2.8125 45.25 C2.80379883 46.55904297 2.80379883 46.55904297 2.79492188 47.89453125 C2.57364815 54.33605539 2.57364815 54.33605539 -0.109375 57.44140625 C-3.36649472 59.19760999 -6.55692701 60.49897953 -10.0625 61.6875 C-11.27035156 62.10386719 -12.47820312 62.52023437 -13.72265625 62.94921875 C-25.29901048 66.66082696 -36.82245279 65.83110094 -48 61 C-54.92038532 57.15912933 -60.39542872 51.35370022 -63.14453125 43.89453125 C-64.20407697 39.07093724 -64.33007993 34.54737974 -64.3125 29.625 C-64.33666992 28.28308594 -64.33666992 28.28308594 -64.36132812 26.9140625 C-64.36845803 17.10331923 -62.04675103 10.15277168 -55.2421875 3.01171875 C-40.21234874 -10.47324111 -17.17567981 -7.97554419 0 0 Z " fill="#050505" transform="translate(497,599)"/>
<path d="M0 0 C0 18.37239321 -16.65068459 35.02204116 -28.60888672 47.54150391 C-29.53770008 48.51530717 -30.46121369 49.49419251 -31.37939453 50.47802734 C-37.64387401 57.18313451 -43.96718995 62.53443461 -52 67 C-52.6703125 67.38414062 -53.340625 67.76828125 -54.03125 68.1640625 C-56.32436904 69.13772812 -58.07722849 69.29988441 -60.5625 69.3125 C-61.32691406 69.32925781 -62.09132813 69.34601563 -62.87890625 69.36328125 C-65 69 -65 69 -66.83984375 67.79296875 C-68 66 -68 66 -67.71630859 63.63989258 C-65.21866787 54.43505646 -57.06052333 47.62406445 -50.47045898 41.13427734 C-48.82425708 39.51158914 -47.19170654 37.87607464 -45.56054688 36.23828125 C-39.02413002 29.7198099 -32.22969551 23.75210955 -25 18 C-23.80512857 16.9941452 -22.61537963 15.9821347 -21.43359375 14.9609375 C-4.09969789 0 -4.09969789 0 0 0 Z " fill="#FAFAFB" transform="translate(694,548)"/>
<path d="M0 0 C-1.10167292 6.19490148 -2.81935913 11.32350184 -5.875 16.8125 C-6.26647217 17.53115234 -6.65794434 18.24980469 -7.0612793 18.99023438 C-15.48113451 34.28059973 -24.61169911 48.96972932 -35 63 C-35.5273877 63.71285156 -36.05477539 64.42570312 -36.59814453 65.16015625 C-44.00865983 75.12102923 -51.78563862 84.69297076 -60 94 C-60.83402344 94.94617188 -61.66804687 95.89234375 -62.52734375 96.8671875 C-64.34473683 98.91774349 -66.1676284 100.96283393 -68 103 C-69 101 -69 101 -68.38598633 99.10253906 C-68.03818115 98.33135742 -67.69037598 97.56017578 -67.33203125 96.765625 C-66.7433728 95.45621948 -66.7433728 95.45621948 -66.14282227 94.12036133 C-65.70381592 93.17314209 -65.26480957 92.22592285 -64.8125 91.25 C-64.36124756 90.26862061 -63.90999512 89.28724121 -63.44506836 88.27612305 C-58.44969499 77.57808946 -52.8021839 67.27640989 -47 57 C-46.07154259 55.33076921 -45.1431553 53.66149942 -44.21484375 51.9921875 C-15.0127483 0 -15.0127483 0 0 0 Z " fill="#F9F9F9" transform="translate(712,370)"/>
<path d="M0 0 C2 2 2 2 2.51953125 4.9921875 C2.34286922 10.55057835 -1.23129727 14.72804902 -4.3125 19.125 C-4.94897461 20.05280273 -5.58544922 20.98060547 -6.24121094 21.93652344 C-28.19845054 53.52548157 -28.19845054 53.52548157 -43.875 56.8125 C-45.421875 56.9053125 -45.421875 56.9053125 -47 57 C-48 56 -48 56 -48.2734375 52.44921875 C-48.20311174 47.66173911 -46.7262599 44.0574695 -44.625 39.8125 C-44.26849365 39.07708984 -43.9119873 38.34167969 -43.54467773 37.58398438 C-36.02391134 22.65574051 -18.74167864 -1.66592699 0 0 Z " fill="#FAFAFA" transform="translate(871,474)"/>
<path d="M0 0 C0.53810938 6.32278525 -1.13248148 10.41777742 -4 16 C-4.40089844 16.81082031 -4.80179688 17.62164062 -5.21484375 18.45703125 C-14.07538983 35.58742034 -26.54737242 50.88343401 -39.01953125 65.49609375 C-47.77836134 75.76923217 -56.32199464 86.16936882 -64.26928711 97.0871582 C-67.79730793 101.89865397 -67.79730793 101.89865397 -70 103 C-68.32788787 97.12316146 -65.52505474 91.93946717 -62.6875 86.5625 C-61.89279297 85.04982544 -61.89279297 85.04982544 -61.08203125 83.5065918 C-55.28373257 72.54035525 -49.21684087 61.73369011 -43 51 C-42.48937012 50.11650879 -41.97874023 49.23301758 -41.45263672 48.32275391 C-13.38989873 0 -13.38989873 0 0 0 Z " fill="#F8F9F9" transform="translate(830,370)"/>
<path d="M0 0 C2 2 2 2 2.45703125 5.0546875 C1.8398642 10.38236888 -0.38192365 13.71732043 -3.3125 18.125 C-3.85430908 18.9588623 -4.39611816 19.79272461 -4.9543457 20.65185547 C-9.77795471 27.93883775 -15.07797683 34.58596584 -21 41 C-21.77085937 41.85207031 -22.54171875 42.70414063 -23.3359375 43.58203125 C-29.00050118 49.57454336 -35.65645878 55.54508826 -44.0625 56.9375 C-45.031875 56.958125 -46.00125 56.97875 -47 57 C-48 56 -48 56 -48.2734375 52.9453125 C-47.9491648 48.26652068 -46.66331051 45.04109616 -44.625 40.875 C-44.26631836 40.13290283 -43.90763672 39.39080566 -43.53808594 38.6262207 C-36.2178183 24.04057174 -18.31417347 -1.40878257 0 0 Z " fill="#FAFAFA" transform="translate(356,474)"/>
<path d="M0 0 C0.33 0 0.66 0 1 0 C2.19458898 36.68307094 2.19458898 36.68307094 -8 48 C-10.96575257 50.49747585 -12.57378165 50.95350345 -16.4375 51.375 C-21.19746291 50.87395127 -24.28643827 49.43718081 -27.9375 46.375 C-29.73173037 42.36436742 -29.2975412 39.14716518 -28 35 C-22.03436507 23.67004082 -12.60615732 13.11241253 -3.33984375 4.3671875 C-1.75636846 2.83627129 -1.75636846 2.83627129 0 0 Z " fill="#F9F9F9" transform="translate(413,482)"/>
<path d="M0 0 C2.495625 -0.061875 4.99125 -0.12375 7.5625 -0.1875 C8.33408447 -0.21481201 9.10566895 -0.24212402 9.90063477 -0.27026367 C16.04433022 -0.34307668 20.59149329 1.02378937 25.4375 5 C27.83377859 9.60085489 27.73409214 13.92252938 27 19 C24.91027964 23.17944072 22.06312583 25.00704972 17.63671875 26.5078125 C11.82707772 27.59227883 5.87698726 27.1574193 0 27 C0 18.09 0 9.18 0 0 Z " fill="#F7F7F7" transform="translate(539,600)"/>
<path d="M0 0 C2 3 2 3 2.0625 5.8125 C0.56467 10.30599001 -1.98794584 12.5706102 -6 15 C-9.8125 16 -9.8125 16 -13 16 C-15 14 -15 14 -15.375 11.25 C-14.81383199 6.38654389 -12.4654727 3.56653979 -9.1875 0.0625 C-5.8587937 -1.5543002 -3.50325512 -0.90825133 0 0 Z " fill="#050505" transform="translate(614,434)"/>
<path d="M0 0 C1 2 1 2 0.0625 5.125 C-0.288125 6.07375 -0.63875 7.0225 -1 8 C-1.99 7.67 -2.98 7.34 -4 7 C-2.79618552 4.50638429 -1.54571278 2.31856917 0 0 Z " fill="#E6E6E6" transform="translate(861,509)"/>
</svg>
